<?xml version="1.0" encoding="UTF-8"?>
<svg xmlns="http://www.w3.org/2000/svg" width="219" height="60" viewBox="0 0 219 60" fill="none">
  <g clip-path="url(#clip0_85_43)">
    <mask id="mask0_85_43" style="mask-type:luminance" maskUnits="userSpaceOnUse" x="-4" y="-11" width="226" height="82">
      <path d="M-3.92151 -10.7843H221.961V70.7566H-3.92151V-10.7843Z" fill="white"></path>
    </mask>
    <g mask="url(#mask0_85_43)">
      <path d="M9.29947 53.1431L8.27359 55.5337C8.43672 55.5337 8.60614 55.5369 8.78182 55.5431C8.95725 55.5494 9.12692 55.5525 9.29006 55.5525C9.46574 55.5525 9.64143 55.551 9.81712 55.5478C9.9928 55.5447 10.1685 55.54 10.3442 55.5337L9.29947 53.1431ZM9.61006 51.8725C9.76065 52.2365 9.92535 52.6286 10.1042 53.049C10.283 53.4694 10.4634 53.8976 10.6454 54.3337C10.8273 54.7701 11.0077 55.1996 11.1865 55.6231C11.3654 56.0467 11.5332 56.4435 11.6901 56.8137C11.8469 57.1842 11.9912 57.5133 12.123 57.802C12.2548 58.0906 12.3614 58.3196 12.443 58.489C12.3552 58.4765 12.272 58.4655 12.1936 58.4561C12.1152 58.4467 12.032 58.442 11.9442 58.442C11.8563 58.442 11.7732 58.4467 11.6948 58.4561C11.6163 58.4655 11.5332 58.4765 11.4454 58.489C11.4014 58.3259 11.3418 58.1423 11.2665 57.9384C11.1912 57.7345 11.1097 57.5212 11.0218 57.2984C10.9337 57.0757 10.8414 56.8498 10.7442 56.6208C10.6469 56.3918 10.5575 56.1737 10.4759 55.9667C10.2749 55.9604 10.0712 55.9557 9.86417 55.9525C9.65712 55.9494 9.45006 55.9478 9.243 55.9478C9.04849 55.9478 8.85712 55.9494 8.66888 55.9525C8.48065 55.9557 8.28927 55.9604 8.09476 55.9667C7.89398 56.4561 7.71202 56.9235 7.54888 57.369C7.38574 57.8148 7.26313 58.1878 7.18182 58.489C7.11908 58.4765 7.05947 58.4655 7.003 58.4561C6.94653 58.4467 6.89006 58.442 6.83359 58.442C6.77712 58.442 6.72065 58.4467 6.66418 58.4561C6.6077 58.4655 6.5481 58.4765 6.48535 58.489C6.99359 57.3784 7.49084 56.2772 7.97712 55.1855C8.46339 54.0937 8.9481 52.9894 9.43123 51.8725H9.61006Z" fill="#181210"></path>
      <path d="M20.0194 52.9923C20.0131 52.5091 19.9975 52.1766 19.9724 51.9946C20.1104 52.0262 20.239 52.0417 20.3582 52.0417C20.4524 52.0417 20.5465 52.0262 20.6406 51.9946C20.6218 52.2142 20.6029 52.4762 20.5841 52.7805C20.5653 53.0848 20.5478 53.4111 20.5324 53.7593C20.5167 54.1076 20.5041 54.4652 20.4947 54.8323C20.4853 55.1993 20.4772 55.5557 20.4712 55.9005C20.4649 56.3146 20.4019 56.6898 20.2829 57.0252C20.1637 57.3609 19.9896 57.6464 19.7606 57.8817C19.5316 58.117 19.2508 58.2974 18.9182 58.4228C18.5857 58.5483 18.2092 58.6111 17.7888 58.6111C16.8539 58.6111 16.1716 58.3915 15.7418 57.9523C15.312 57.513 15.0971 56.8357 15.0971 55.9193C15.0971 55.6244 15.1049 55.3625 15.1206 55.1334C15.1363 54.9044 15.1441 54.6707 15.1441 54.4323C15.1441 53.9117 15.1378 53.444 15.1253 53.0299C15.1125 52.6158 15.1002 52.271 15.0876 51.9946C15.1629 52.0072 15.2442 52.0181 15.3324 52.0276C15.4202 52.037 15.5018 52.0417 15.5771 52.0417C15.7088 52.0417 15.8437 52.0262 15.9818 51.9946C15.9692 52.1327 15.9551 52.3133 15.9394 52.5358C15.9237 52.7585 15.9112 53.0111 15.9018 53.2934C15.8924 53.5758 15.8845 53.8817 15.8782 54.2111C15.872 54.5405 15.8688 54.8778 15.8688 55.2228C15.8688 55.4364 15.872 55.6574 15.8782 55.8864C15.8845 56.1157 15.9065 56.3381 15.9441 56.5546C15.9818 56.7711 16.0429 56.9781 16.1276 57.1758C16.2124 57.3734 16.3331 57.546 16.49 57.6934C16.6469 57.8409 16.8442 57.957 17.0829 58.0417C17.3214 58.1264 17.6163 58.1687 17.9676 58.1687C18.3127 58.1687 18.6029 58.1185 18.8382 58.0181C19.0735 57.918 19.2665 57.786 19.4171 57.6228C19.5676 57.4597 19.6853 57.2717 19.77 57.0581C19.8547 56.8451 19.9159 56.6221 19.9535 56.3899C19.9912 56.1578 20.0131 55.9274 20.0194 55.6981C20.0254 55.4694 20.0288 55.2545 20.0288 55.0534C20.0288 54.1627 20.0254 53.4757 20.0194 52.9923Z" fill="#181210"></path>
      <path d="M25.6383 54.4325C25.6383 53.7863 25.6289 53.1369 25.6101 52.4843C25.4469 52.4843 25.2759 52.4859 25.0971 52.489C24.9183 52.4922 24.7395 52.4984 24.5607 52.5078C24.3818 52.5172 24.209 52.5282 24.043 52.5408C23.8767 52.5536 23.7277 52.569 23.5959 52.5878C23.6273 52.4812 23.643 52.3808 23.643 52.2867C23.643 52.2051 23.6273 52.1078 23.5959 51.9949C24.0038 52.0074 24.4082 52.0184 24.8101 52.0278C25.2114 52.0372 25.6163 52.042 26.0242 52.042C26.432 52.042 26.8365 52.0372 27.2383 52.0278C27.6396 52.0184 28.0446 52.0074 28.4524 51.9949C28.421 52.1078 28.4054 52.2082 28.4054 52.2961C28.4054 52.3842 28.421 52.4812 28.4524 52.5878C28.3207 52.569 28.1714 52.5536 28.0054 52.5408C27.8388 52.5282 27.6665 52.5172 27.4877 52.5078C27.3089 52.4984 27.1301 52.4922 26.9512 52.489C26.7724 52.4859 26.6014 52.4843 26.4383 52.4843C26.4195 53.1369 26.4101 53.7863 26.4101 54.4325V56.0514C26.4101 56.4592 26.4176 56.8655 26.4336 57.2702C26.4493 57.6749 26.4665 58.0812 26.4854 58.489C26.4038 58.4765 26.3254 58.4655 26.2501 58.4561C26.1748 58.4467 26.0995 58.442 26.0242 58.442C25.9489 58.442 25.8736 58.4467 25.7983 58.4561C25.723 58.4655 25.6443 58.4765 25.563 58.489C25.5818 58.0812 25.5991 57.6749 25.6148 57.2702C25.6302 56.8655 25.6383 56.4592 25.6383 56.0514V54.4325Z" fill="#181210"></path>
      <path d="M36.4995 53.8913C36.3677 53.5117 36.1842 53.198 35.9489 52.9502C35.7136 52.7023 35.4375 52.5188 35.1207 52.3996C34.8038 52.2803 34.4603 52.2207 34.0901 52.2207C33.7199 52.2207 33.3779 52.2803 33.0642 52.3996C32.7505 52.5188 32.476 52.7023 32.2407 52.9502C32.0054 53.198 31.8218 53.5117 31.6901 53.8913C31.5583 54.2709 31.4924 54.7211 31.4924 55.2419C31.4924 55.7627 31.5583 56.2129 31.6901 56.5925C31.8218 56.9721 32.0054 57.2858 32.2407 57.5337C32.476 57.7815 32.7505 57.9651 33.0642 58.0843C33.3779 58.2035 33.7199 58.2631 34.0901 58.2631C34.4603 58.2631 34.8038 58.2035 35.1207 58.0843C35.4375 57.9651 35.7136 57.7815 35.9489 57.5337C36.1842 57.2858 36.3677 56.9721 36.4995 56.5925C36.6312 56.2129 36.6971 55.7627 36.6971 55.2419C36.6971 54.7211 36.6312 54.2709 36.4995 53.8913ZM30.8289 53.816C31.0014 53.3988 31.243 53.0458 31.5536 52.7572C31.8642 52.4686 32.2344 52.249 32.6642 52.0984C33.094 51.9478 33.5693 51.8725 34.0901 51.8725C34.6109 51.8725 35.0877 51.9478 35.5207 52.0984C35.9536 52.249 36.3254 52.4686 36.636 52.7572C36.9465 53.0458 37.1881 53.3988 37.3607 53.816C37.5332 54.2333 37.6195 54.7086 37.6195 55.2419C37.6195 55.7752 37.5332 56.2505 37.3607 56.6678C37.1881 57.0851 36.9465 57.438 36.636 57.7266C36.3254 58.0152 35.9536 58.2349 35.5207 58.3854C35.0877 58.536 34.6109 58.6113 34.0901 58.6113C33.5693 58.6113 33.094 58.536 32.6642 58.3854C32.2344 58.2349 31.8642 58.0152 31.5536 57.7266C31.243 57.438 31.0014 57.0851 30.8289 56.6678C30.6563 56.2505 30.5701 55.7752 30.5701 55.2419C30.5701 54.7086 30.6563 54.2333 30.8289 53.816Z" fill="#181210"></path>
      <path d="M46.0901 54.9688C46.1779 54.9876 46.2736 55.0004 46.3772 55.0064C46.4807 55.0127 46.5952 55.0158 46.7207 55.0158C46.9152 55.0158 47.1176 54.9939 47.3277 54.9499C47.5379 54.9063 47.7309 54.8292 47.9066 54.7194C48.0823 54.6096 48.2281 54.4624 48.3442 54.277C48.4603 54.0919 48.5183 53.8582 48.5183 53.5758C48.5183 53.3311 48.4728 53.1288 48.3819 52.9688C48.2909 52.8088 48.1732 52.6817 48.0289 52.5876C47.8846 52.4935 47.7262 52.4292 47.5536 52.3947C47.3808 52.3601 47.2164 52.3429 47.0595 52.3429C46.8399 52.3429 46.6579 52.3476 46.5136 52.357C46.3693 52.3664 46.247 52.3774 46.1466 52.3899C46.1338 52.7353 46.1215 53.077 46.1089 53.4158C46.0961 53.7547 46.0901 54.0935 46.0901 54.4323V54.9688ZM45.3183 54.4323C45.3183 54.0245 45.3105 53.6182 45.2948 53.2135C45.2791 52.8088 45.2619 52.4028 45.243 51.9947C45.425 52.0072 45.6038 52.0182 45.7795 52.0276C45.9552 52.037 46.1338 52.0417 46.316 52.0417C46.4979 52.0417 46.6768 52.0339 46.8525 52.0182C47.0279 52.0028 47.2067 51.9947 47.3889 51.9947C47.6525 51.9947 47.9034 52.0198 48.1419 52.0699C48.3803 52.1201 48.5889 52.2033 48.7677 52.3194C48.9466 52.4357 49.0877 52.5876 49.1913 52.7758C49.2948 52.9641 49.3466 53.1994 49.3466 53.4817C49.3466 53.7829 49.2791 54.0417 49.1442 54.2582C49.0093 54.4747 48.8446 54.655 48.6501 54.7994C48.4556 54.9439 48.2454 55.0535 48.0195 55.1288C47.7936 55.2041 47.5928 55.2545 47.4172 55.2794C47.4925 55.3735 47.596 55.5052 47.7277 55.6747C47.8595 55.8441 48.007 56.0307 48.1701 56.2347C48.3332 56.4388 48.5026 56.6503 48.6783 56.8699C48.854 57.0898 49.0234 57.3029 49.1866 57.5099C49.3497 57.717 49.5019 57.9068 49.643 58.0794C49.7842 58.2522 49.9019 58.3886 49.996 58.4888C49.9019 58.4762 49.8077 58.4652 49.7136 58.4558C49.6195 58.4464 49.5254 58.4417 49.4313 58.4417C49.3434 58.4417 49.2525 58.4464 49.1583 58.4558C49.0642 58.4652 48.9732 58.4762 48.8854 58.4888C48.7913 58.3447 48.6485 58.139 48.4572 57.8723C48.2658 57.6056 48.0556 57.3204 47.8266 57.0158C47.5976 56.7118 47.3607 56.4122 47.116 56.117C46.8713 55.8221 46.6485 55.5711 46.4477 55.3641H46.0901V56.0511C46.0901 56.4592 46.0979 56.8652 46.1136 57.2699C46.1291 57.6747 46.1466 58.0809 46.1654 58.4888C46.0838 58.4762 46.0054 58.4652 45.9301 58.4558C45.8548 58.4464 45.7795 58.4417 45.7042 58.4417C45.6289 58.4417 45.5536 58.4464 45.4783 58.4558C45.403 58.4652 45.3246 58.4762 45.243 58.4888C45.2619 58.0809 45.2791 57.6747 45.2948 57.2699C45.3105 56.8652 45.3183 56.4592 45.3183 56.0511V54.4323Z" fill="#181210"></path>
      <path d="M52.951 54.4231C52.951 54.0153 52.9432 53.609 52.9275 53.2043C52.9118 52.7996 52.8946 52.3965 52.8757 51.9949C53.1581 52.0074 53.4389 52.0184 53.7181 52.0278C53.9973 52.0372 54.2781 52.042 54.5604 52.042C54.8428 52.042 55.122 52.0372 55.3981 52.0278C55.6742 52.0184 55.9534 52.0074 56.2357 51.9949C56.2169 52.089 56.2075 52.1831 56.2075 52.2772C56.2075 52.3714 56.2169 52.4655 56.2357 52.5596C56.0349 52.5471 55.8514 52.5329 55.6851 52.5172C55.5189 52.5016 55.3432 52.4877 55.1581 52.4749C54.973 52.4623 54.7706 52.4529 54.551 52.4467C54.3314 52.4406 54.0679 52.4372 53.7604 52.4372C53.7542 52.638 53.7463 52.8294 53.7369 53.0114C53.7275 53.1933 53.7228 53.4004 53.7228 53.6325C53.7228 53.8772 53.7244 54.1157 53.7275 54.3478C53.7306 54.58 53.7322 54.7557 53.7322 54.8749C54.2844 54.8749 54.7346 54.8655 55.0828 54.8467C55.431 54.8278 55.7432 54.8059 56.0193 54.7808C56.0004 54.8749 55.991 54.9724 55.991 55.0725C55.991 55.1667 56.0004 55.2608 56.0193 55.3549C55.8561 55.3361 55.6663 55.322 55.4498 55.3125C55.2334 55.3031 55.0169 55.2953 54.8004 55.289C54.584 55.283 54.38 55.2783 54.1887 55.2749C53.9973 55.2718 53.8451 55.2702 53.7322 55.2702C53.7322 55.3267 53.7306 55.3878 53.7275 55.4537C53.7244 55.5196 53.7228 55.6027 53.7228 55.7031V56.0702V56.6349C53.7228 56.9925 53.7244 57.2877 53.7275 57.5196C53.7306 57.7518 53.7353 57.9274 53.7416 58.0467C53.9487 58.0467 54.1698 58.0451 54.4051 58.042C54.6404 58.0388 54.8726 58.0344 55.1016 58.0278C55.3306 58.0218 55.5471 58.0106 55.751 57.9949C55.9549 57.9795 56.1322 57.9557 56.2828 57.9243C56.2702 57.9682 56.2624 58.0171 56.2593 58.0702C56.2561 58.1235 56.2546 58.1722 56.2546 58.2161C56.2546 58.3165 56.264 58.4074 56.2828 58.489C56.0004 58.4765 55.7197 58.4655 55.4404 58.4561C55.1612 58.4467 54.8773 58.442 54.5887 58.442C54.3 58.442 54.0146 58.4467 53.7322 58.4561C53.4499 58.4655 53.1644 58.4765 52.8757 58.489C52.8946 58.0749 52.9118 57.6655 52.9275 57.2608C52.9432 56.8561 52.951 56.4498 52.951 56.042V54.4231Z" fill="#181210"></path>
      <path d="M59.5393 54.4325C59.5393 54.0247 59.5314 53.6184 59.5158 53.2137C59.5001 52.809 59.4828 52.4027 59.464 51.9949C59.5456 52.0074 59.624 52.0184 59.6993 52.0278C59.7746 52.0372 59.8499 52.042 59.9252 52.042C60.0005 52.042 60.0758 52.0372 60.151 52.0278C60.2263 52.0184 60.3048 52.0074 60.3863 51.9949C60.3675 52.4027 60.3503 52.809 60.3346 53.2137C60.3189 53.6184 60.311 54.0247 60.311 54.4325C60.311 55.2231 60.3142 55.9086 60.3205 56.489C60.3267 57.0694 60.333 57.5886 60.3393 58.0467C60.7848 58.0467 61.2114 58.042 61.6193 58.0325C62.0271 58.0231 62.4663 57.9871 62.9369 57.9243C62.9056 58.031 62.8899 58.1254 62.8899 58.2067C62.8899 58.2882 62.9056 58.3823 62.9369 58.489C62.6483 58.4765 62.3597 58.4655 62.071 58.4561C61.7824 58.4467 61.4938 58.442 61.2052 58.442C60.9103 58.442 60.6201 58.4467 60.3346 58.4561C60.0491 58.4655 59.7589 58.4765 59.464 58.489C59.4828 58.0812 59.5001 57.6749 59.5158 57.2702C59.5314 56.8655 59.5393 56.4592 59.5393 56.0514V54.4325Z" fill="#181210"></path>
      <path d="M71.53 53.8913C71.3982 53.5117 71.2147 53.198 70.9794 52.9502C70.7441 52.7023 70.468 52.5188 70.1512 52.3996C69.8343 52.2803 69.4908 52.2207 69.1206 52.2207C68.7504 52.2207 68.4084 52.2803 68.0947 52.3996C67.781 52.5188 67.5065 52.7023 67.2712 52.9502C67.0359 53.198 66.8524 53.5117 66.7206 53.8913C66.5888 54.2709 66.5229 54.7211 66.5229 55.2419C66.5229 55.7627 66.5888 56.2129 66.7206 56.5925C66.8524 56.9721 67.0359 57.2858 67.2712 57.5337C67.5065 57.7815 67.781 57.9651 68.0947 58.0843C68.4084 58.2035 68.7504 58.2631 69.1206 58.2631C69.4908 58.2631 69.8343 58.2035 70.1512 58.0843C70.468 57.9651 70.7441 57.7815 70.9794 57.5337C71.2147 57.2858 71.3982 56.9721 71.53 56.5925C71.6618 56.2129 71.7276 55.7627 71.7276 55.2419C71.7276 54.7211 71.6618 54.2709 71.53 53.8913ZM65.8594 53.816C66.032 53.3988 66.2735 53.0458 66.5841 52.7572C66.8947 52.4686 67.2649 52.249 67.6947 52.0984C68.1245 51.9478 68.5998 51.8725 69.1206 51.8725C69.6414 51.8725 70.1182 51.9478 70.5512 52.0984C70.9841 52.249 71.3559 52.4686 71.6665 52.7572C71.9771 53.0458 72.2186 53.3988 72.3912 53.816C72.5637 54.2333 72.65 54.7086 72.65 55.2419C72.65 55.7752 72.5637 56.2505 72.3912 56.6678C72.2186 57.0851 71.9771 57.438 71.6665 57.7266C71.3559 58.0152 70.9841 58.2349 70.5512 58.3854C70.1182 58.536 69.6414 58.6113 69.1206 58.6113C68.5998 58.6113 68.1245 58.536 67.6947 58.3854C67.2649 58.2349 66.8947 58.0152 66.5841 57.7266C66.2735 57.438 66.032 57.0851 65.8594 56.6678C65.6869 56.2505 65.6006 55.7752 65.6006 55.2419C65.6006 54.7086 65.6869 54.2333 65.8594 53.816Z" fill="#181210"></path>
      <path d="M80.7158 58.0749C80.6593 58.1251 80.5684 58.18 80.4429 58.2396C80.3174 58.2992 80.1699 58.3572 80.0005 58.4137C79.8311 58.4702 79.6395 58.5172 79.4264 58.5549C79.2128 58.5925 78.9901 58.6113 78.7582 58.6113C78.2625 58.6113 77.8042 58.536 77.3841 58.3854C76.9634 58.2349 76.6013 58.0152 76.297 57.7266C75.9927 57.438 75.754 57.0851 75.5817 56.6678C75.4092 56.2505 75.3229 55.7752 75.3229 55.2419C75.3229 54.7086 75.4092 54.2333 75.5817 53.816C75.754 53.3988 75.9958 53.0458 76.3064 52.7572C76.617 52.4686 76.9888 52.249 77.4217 52.0984C77.8546 51.9478 78.3312 51.8725 78.8523 51.8725C79.2601 51.8725 79.6382 51.9149 79.9864 51.9996C80.3346 52.0843 80.6374 52.1862 80.8946 52.3054C80.8444 52.3933 80.8034 52.5125 80.7723 52.6631C80.7409 52.8137 80.7158 52.9392 80.697 53.0396L80.6405 53.0584C80.5712 52.9831 80.4818 52.8984 80.3723 52.8043C80.2625 52.7102 80.1323 52.6192 79.9817 52.5313C79.8311 52.4435 79.6601 52.3698 79.4688 52.3102C79.2774 52.2505 79.0719 52.2207 78.8523 52.2207C78.4821 52.2207 78.1386 52.2803 77.8217 52.3996C77.5048 52.5188 77.2288 52.7023 76.9935 52.9502C76.7582 53.198 76.5746 53.5117 76.4429 53.8913C76.3111 54.2709 76.2452 54.7211 76.2452 55.2419C76.2452 55.7627 76.3111 56.2129 76.4429 56.5925C76.5746 56.9721 76.7582 57.2858 76.9935 57.5337C77.2288 57.7815 77.5048 57.9651 77.8217 58.0843C78.1386 58.2035 78.4821 58.2631 78.8523 58.2631C79.0782 58.2631 79.2868 58.2349 79.4782 58.1784C79.6695 58.1219 79.8452 58.0545 80.0052 57.976C80.1652 57.8976 80.3095 57.8129 80.4382 57.7219C80.5668 57.6309 80.6748 57.5509 80.7629 57.4819L80.8005 57.5196L80.7158 58.0749Z" fill="#181210"></path>
      <path d="M85.6381 53.1431L84.6122 55.5337C84.7753 55.5337 84.9448 55.5369 85.1204 55.5431C85.2959 55.5494 85.4655 55.5525 85.6287 55.5525C85.8044 55.5525 85.9801 55.551 86.1557 55.5478C86.3314 55.5447 86.5071 55.54 86.6828 55.5337L85.6381 53.1431ZM85.9487 51.8725C86.0993 52.2365 86.264 52.6286 86.4428 53.049C86.6216 53.4694 86.802 53.8976 86.984 54.3337C87.1659 54.7701 87.3463 55.1996 87.5252 55.6231C87.704 56.0467 87.8718 56.4435 88.0287 56.8137C88.1855 57.1842 88.3299 57.5133 88.4616 57.802C88.5934 58.0906 88.7001 58.3196 88.7816 58.489C88.6938 58.4765 88.6106 58.4655 88.5322 58.4561C88.4538 58.4467 88.3706 58.442 88.2828 58.442C88.195 58.442 88.1118 58.4467 88.0334 58.4561C87.955 58.4655 87.8718 58.4765 87.784 58.489C87.7401 58.3259 87.6804 58.1423 87.6052 57.9384C87.5299 57.7345 87.4483 57.5212 87.3604 57.2984C87.2723 57.0757 87.1801 56.8498 87.0828 56.6208C86.9855 56.3918 86.8961 56.1737 86.8146 55.9667C86.6135 55.9604 86.4099 55.9557 86.2028 55.9525C85.9957 55.9494 85.7887 55.9478 85.5816 55.9478C85.3871 55.9478 85.1957 55.9494 85.0075 55.9525C84.8193 55.9557 84.6279 55.9604 84.4334 55.9667C84.2326 56.4561 84.0506 56.9235 83.8875 57.369C83.7244 57.8148 83.6018 58.1878 83.5204 58.489C83.4577 58.4765 83.3981 58.4655 83.3416 58.4561C83.2852 58.4467 83.2287 58.442 83.1722 58.442C83.1157 58.442 83.0593 58.4467 83.0028 58.4561C82.9463 58.4655 82.8867 58.4765 82.824 58.489C83.3322 57.3784 83.8295 56.2772 84.3157 55.1855C84.802 54.0937 85.2867 52.9894 85.7699 51.8725H85.9487Z" fill="#181210"></path>
      <path d="M92.3581 54.4325C92.3581 53.7863 92.3487 53.1369 92.3299 52.4843C92.1668 52.4843 91.9958 52.4859 91.817 52.489C91.6381 52.4922 91.4593 52.4984 91.2805 52.5078C91.1017 52.5172 90.9289 52.5282 90.7629 52.5408C90.5966 52.5536 90.4476 52.569 90.3158 52.5878C90.3472 52.4812 90.3629 52.3808 90.3629 52.2867C90.3629 52.2051 90.3472 52.1078 90.3158 51.9949C90.7236 52.0074 91.1281 52.0184 91.5299 52.0278C91.9312 52.0372 92.3362 52.042 92.744 52.042C93.1519 52.042 93.5563 52.0372 93.9581 52.0278C94.3595 52.0184 94.7644 52.0074 95.1723 51.9949C95.1409 52.1078 95.1252 52.2082 95.1252 52.2961C95.1252 52.3842 95.1409 52.4812 95.1723 52.5878C95.0405 52.569 94.8912 52.5536 94.7252 52.5408C94.5587 52.5282 94.3864 52.5172 94.2076 52.5078C94.0287 52.4984 93.8499 52.4922 93.6711 52.489C93.4923 52.4859 93.3213 52.4843 93.1581 52.4843C93.1393 53.1369 93.1299 53.7863 93.1299 54.4325V56.0514C93.1299 56.4592 93.1375 56.8655 93.1534 57.2702C93.1691 57.6749 93.1864 58.0812 93.2052 58.489C93.1236 58.4765 93.0452 58.4655 92.9699 58.4561C92.8946 58.4467 92.8193 58.442 92.744 58.442C92.6687 58.442 92.5934 58.4467 92.5181 58.4561C92.4429 58.4655 92.3642 58.4765 92.2829 58.489C92.3017 58.0812 92.3189 57.6749 92.3346 57.2702C92.35 56.8655 92.3581 56.4592 92.3581 56.0514V54.4325Z" fill="#181210"></path>
      <path d="M98.1651 54.4325C98.1651 54.0247 98.1573 53.6184 98.1416 53.2137C98.1259 52.809 98.1087 52.4027 98.0898 51.9949C98.1714 52.0074 98.2498 52.0184 98.3251 52.0278C98.4004 52.0372 98.4757 52.042 98.551 52.042C98.6263 52.042 98.7016 52.0372 98.7769 52.0278C98.8522 52.0184 98.9306 52.0074 99.0122 51.9949C98.9934 52.4027 98.9761 52.809 98.9604 53.2137C98.9447 53.6184 98.9369 54.0247 98.9369 54.4325V56.0514C98.9369 56.4592 98.9447 56.8655 98.9604 57.2702C98.9761 57.6749 98.9934 58.0812 99.0122 58.489C98.9306 58.4765 98.8522 58.4655 98.7769 58.4561C98.7016 58.4467 98.6263 58.442 98.551 58.442C98.4757 58.442 98.4004 58.4467 98.3251 58.4561C98.2498 58.4655 98.1714 58.4765 98.0898 58.489C98.1087 58.0812 98.1259 57.6749 98.1416 57.2702C98.1573 56.8655 98.1651 56.4592 98.1651 56.0514V54.4325Z" fill="#181210"></path>
      <path d="M108.066 53.8913C107.934 53.5117 107.751 53.198 107.516 52.9502C107.28 52.7023 107.004 52.5188 106.687 52.3996C106.371 52.2803 106.027 52.2207 105.657 52.2207C105.287 52.2207 104.945 52.2803 104.631 52.3996C104.317 52.5188 104.043 52.7023 103.807 52.9502C103.572 53.198 103.389 53.5117 103.257 53.8913C103.125 54.2709 103.059 54.7211 103.059 55.2419C103.059 55.7627 103.125 56.2129 103.257 56.5925C103.389 56.9721 103.572 57.2858 103.807 57.5337C104.043 57.7815 104.317 57.9651 104.631 58.0843C104.945 58.2035 105.287 58.2631 105.657 58.2631C106.027 58.2631 106.371 58.2035 106.687 58.0843C107.004 57.9651 107.28 57.7815 107.516 57.5337C107.751 57.2858 107.934 56.9721 108.066 56.5925C108.198 56.2129 108.264 55.7627 108.264 55.2419C108.264 54.7211 108.198 54.2709 108.066 53.8913ZM102.396 53.816C102.568 53.3988 102.81 53.0458 103.12 52.7572C103.431 52.4686 103.801 52.249 104.231 52.0984C104.661 51.9478 105.136 51.8725 105.657 51.8725C106.178 51.8725 106.654 51.9478 107.087 52.0984C107.52 52.249 107.892 52.4686 108.203 52.7572C108.513 53.0458 108.755 53.3988 108.927 53.816C109.1 54.2333 109.186 54.7086 109.186 55.2419C109.186 55.7752 109.1 56.2505 108.927 56.6678C108.755 57.0851 108.513 57.438 108.203 57.7266C107.892 58.0152 107.52 58.2349 107.087 58.3854C106.654 58.536 106.178 58.6113 105.657 58.6113C105.136 58.6113 104.661 58.536 104.231 58.3854C103.801 58.2349 103.431 58.0152 103.12 57.7266C102.81 57.438 102.568 57.0851 102.396 56.6678C102.223 56.2505 102.137 55.7752 102.137 55.2419C102.137 54.7086 102.223 54.2333 102.396 53.816Z" fill="#181210"></path>
      <path d="M117.685 58.6113C116.964 57.7643 116.193 56.9 115.375 56.0184C114.555 55.1368 113.742 54.2662 112.932 53.4066C112.926 53.5823 112.919 53.8192 112.913 54.1172C112.907 54.4152 112.904 54.8152 112.904 55.3172C112.904 55.449 112.905 55.6121 112.909 55.8066C112.912 56.0011 112.915 56.2051 112.918 56.4184C112.921 56.6317 112.924 56.8482 112.927 57.0678C112.93 57.2877 112.935 57.4913 112.941 57.6796C112.948 57.8678 112.956 58.0341 112.965 58.1784C112.975 58.3227 112.982 58.4262 112.988 58.489C112.876 58.4576 112.766 58.4419 112.659 58.4419C112.603 58.4419 112.546 58.4466 112.49 58.456C112.433 58.4654 112.374 58.4764 112.311 58.489C112.324 58.4137 112.337 58.29 112.353 58.1172C112.369 57.9447 112.383 57.7407 112.396 57.5054C112.408 57.2702 112.422 57.0147 112.438 56.7384C112.453 56.4623 112.466 56.1865 112.476 55.9102C112.485 55.6341 112.493 55.3643 112.499 55.1007C112.506 54.8372 112.508 54.6019 112.508 54.3949C112.508 53.7988 112.507 53.283 112.504 52.8466C112.501 52.4105 112.493 52.0858 112.48 51.8725H112.631C113.014 52.2866 113.423 52.7305 113.859 53.2043C114.295 53.678 114.728 54.1454 115.158 54.6066C115.588 55.0678 115.995 55.5039 116.382 55.9149C116.768 56.3258 117.105 56.6756 117.393 56.9643V55.6843C117.393 55.2453 117.39 54.8137 117.384 54.3902C117.378 53.9666 117.37 53.5525 117.36 53.1478C117.351 52.7431 117.337 52.3588 117.318 51.9949C117.431 52.0265 117.538 52.0419 117.638 52.0419C117.726 52.0419 117.826 52.0265 117.939 51.9949C117.927 52.1329 117.911 52.34 117.892 52.616C117.873 52.8924 117.856 53.187 117.84 53.5007C117.825 53.8145 117.812 54.1219 117.803 54.4231C117.793 54.7243 117.789 54.9658 117.789 55.1478C117.789 55.3865 117.79 55.6811 117.793 56.0325C117.797 56.3839 117.799 56.7337 117.803 57.0819C117.806 57.4302 117.809 57.7454 117.812 58.0278C117.815 58.3102 117.817 58.5047 117.817 58.6113H117.685Z" fill="#181210"></path>
      <path d="M126.692 51.8725C127.125 52.7635 127.563 53.6294 128.005 54.4702C128.447 55.311 128.91 56.1737 129.393 57.0584C129.456 56.9392 129.547 56.7667 129.666 56.5408C129.786 56.3149 129.923 56.0592 130.08 55.7737C130.237 55.4882 130.407 55.1776 130.589 54.842C130.771 54.5063 130.954 54.1674 131.139 53.8255C131.324 53.4835 131.506 53.1447 131.685 52.809C131.864 52.4733 132.032 52.1612 132.189 51.8725H132.311C132.38 52.4749 132.446 53.0569 132.509 53.6184C132.571 54.18 132.633 54.7322 132.692 55.2749C132.752 55.8176 132.813 56.3541 132.876 56.8843C132.938 57.4145 133.007 57.9494 133.083 58.489C133.007 58.4765 132.934 58.4655 132.862 58.4561C132.789 58.4467 132.716 58.442 132.64 58.442C132.565 58.442 132.491 58.4467 132.419 58.4561C132.347 58.4655 132.273 58.4765 132.198 58.489C132.129 57.642 132.06 56.8231 131.991 56.0325C131.922 55.242 131.837 54.442 131.737 53.6325H131.718C131.285 54.4231 130.86 55.209 130.443 55.9902C130.026 56.7714 129.629 57.5886 129.252 58.442H129.167C128.797 57.6576 128.405 56.8655 127.991 56.0655C127.577 55.2655 127.163 54.4545 126.749 53.6325H126.73C126.686 54.0216 126.637 54.4435 126.584 54.8984C126.531 55.3533 126.482 55.802 126.438 56.2443C126.394 56.6867 126.357 57.1055 126.325 57.5008C126.294 57.8961 126.278 58.2255 126.278 58.489C126.222 58.4765 126.166 58.4655 126.113 58.4561C126.06 58.4467 126.005 58.442 125.949 58.442C125.892 58.442 125.837 58.4467 125.784 58.4561C125.731 58.4655 125.676 58.4765 125.619 58.489C125.701 57.9682 125.785 57.4239 125.873 56.8561C125.961 56.2882 126.044 55.7188 126.123 55.1478C126.201 54.5769 126.277 54.0137 126.349 53.4584C126.421 52.9031 126.482 52.3745 126.532 51.8725H126.692Z" fill="#181210"></path>
      <path d="M138.391 53.1431L137.365 55.5337C137.528 55.5337 137.697 55.5369 137.873 55.5431C138.049 55.5494 138.218 55.5525 138.381 55.5525C138.557 55.5525 138.733 55.551 138.908 55.5478C139.084 55.5447 139.26 55.54 139.435 55.5337L138.391 53.1431ZM138.701 51.8725C138.852 52.2365 139.017 52.6286 139.195 53.049C139.374 53.4694 139.554 53.8976 139.737 54.3337C139.919 54.7701 140.099 55.1996 140.278 55.6231C140.457 56.0467 140.625 56.4435 140.781 56.8137C140.938 57.1842 141.083 57.5133 141.214 57.802C141.346 58.0906 141.453 58.3196 141.534 58.489C141.446 58.4765 141.363 58.4655 141.285 58.4561C141.206 58.4467 141.123 58.442 141.035 58.442C140.947 58.442 140.865 58.4467 140.786 58.4561C140.707 58.4655 140.625 58.4765 140.537 58.489C140.493 58.3259 140.433 58.1423 140.358 57.9384C140.283 57.7345 140.201 57.5212 140.113 57.2984C140.025 57.0757 139.932 56.8498 139.835 56.6208C139.738 56.3918 139.649 56.1737 139.567 55.9667C139.366 55.9604 139.163 55.9557 138.955 55.9525C138.748 55.9494 138.541 55.9478 138.334 55.9478C138.14 55.9478 137.948 55.9494 137.76 55.9525C137.572 55.9557 137.381 55.9604 137.186 55.9667C136.985 56.4561 136.803 56.9235 136.64 57.369C136.477 57.8148 136.355 58.1878 136.273 58.489C136.21 58.4765 136.151 58.4655 136.094 58.4561C136.038 58.4467 135.981 58.442 135.925 58.442C135.868 58.442 135.812 58.4467 135.755 58.4561C135.699 58.4655 135.639 58.4765 135.577 58.489C136.085 57.3784 136.582 56.2772 137.068 55.1855C137.555 54.0937 138.039 52.9894 138.523 51.8725H138.701Z" fill="#181210"></path>
      <path d="M149.798 58.6113C149.076 57.7643 148.306 56.9 147.487 56.0184C146.668 55.1368 145.854 54.2662 145.045 53.4066C145.039 53.5823 145.032 53.8192 145.026 54.1172C145.02 54.4152 145.017 54.8152 145.017 55.3172C145.017 55.449 145.018 55.6121 145.021 55.8066C145.024 56.0011 145.028 56.2051 145.031 56.4184C145.034 56.6317 145.037 56.8482 145.04 57.0678C145.043 57.2877 145.048 57.4913 145.054 57.6796C145.061 57.8678 145.068 58.0341 145.078 58.1784C145.087 58.3227 145.095 58.4262 145.101 58.489C144.988 58.4576 144.879 58.4419 144.772 58.4419C144.716 58.4419 144.659 58.4466 144.603 58.456C144.546 58.4654 144.486 58.4764 144.424 58.489C144.436 58.4137 144.45 58.29 144.466 58.1172C144.482 57.9447 144.496 57.7407 144.509 57.5054C144.521 57.2702 144.535 57.0147 144.551 56.7384C144.566 56.4623 144.579 56.1865 144.588 55.9102C144.598 55.6341 144.606 55.3643 144.612 55.1007C144.618 54.8372 144.621 54.6019 144.621 54.3949C144.621 53.7988 144.62 53.283 144.617 52.8466C144.614 52.4105 144.606 52.0858 144.593 51.8725H144.744C145.126 52.2866 145.536 52.7305 145.972 53.2043C146.408 53.678 146.841 54.1454 147.271 54.6066C147.701 55.0678 148.108 55.5039 148.494 55.9149C148.88 56.3258 149.217 56.6756 149.506 56.9643V55.6843C149.506 55.2453 149.503 54.8137 149.497 54.3902C149.49 53.9666 149.483 53.5525 149.473 53.1478C149.464 52.7431 149.45 52.3588 149.431 51.9949C149.544 52.0265 149.65 52.0419 149.751 52.0419C149.839 52.0419 149.939 52.0265 150.052 51.9949C150.039 52.1329 150.024 52.34 150.005 52.616C149.986 52.8924 149.969 53.187 149.953 53.5007C149.937 53.8145 149.925 54.1219 149.915 54.4231C149.906 54.7243 149.901 54.9658 149.901 55.1478C149.901 55.3865 149.903 55.6811 149.906 56.0325C149.909 56.3839 149.912 56.7337 149.915 57.0819C149.919 57.4302 149.922 57.7454 149.925 58.0278C149.928 58.3102 149.93 58.5047 149.93 58.6113H149.798Z" fill="#181210"></path>
      <path d="M155.586 53.1431L154.56 55.5337C154.723 55.5337 154.893 55.5369 155.069 55.5431C155.244 55.5494 155.414 55.5525 155.577 55.5525C155.752 55.5525 155.928 55.551 156.104 55.5478C156.279 55.5447 156.455 55.54 156.631 55.5337L155.586 53.1431ZM155.897 51.8725C156.047 52.2365 156.212 52.6286 156.391 53.049C156.57 53.4694 156.75 53.8976 156.932 54.3337C157.114 54.7701 157.294 55.1996 157.473 55.6231C157.652 56.0467 157.82 56.4435 157.977 56.8137C158.133 57.1842 158.278 57.5133 158.41 57.802C158.542 58.0906 158.648 58.3196 158.73 58.489C158.642 58.4765 158.559 58.4655 158.48 58.4561C158.402 58.4467 158.319 58.442 158.231 58.442C158.143 58.442 158.06 58.4467 157.982 58.4561C157.903 58.4655 157.82 58.4765 157.732 58.489C157.688 58.3259 157.629 58.1423 157.553 57.9384C157.478 57.7345 157.396 57.5212 157.309 57.2984C157.221 57.0757 157.128 56.8498 157.031 56.6208C156.933 56.3918 156.844 56.1737 156.763 55.9667C156.562 55.9604 156.358 55.9557 156.151 55.9525C155.944 55.9494 155.737 55.9478 155.53 55.9478C155.335 55.9478 155.144 55.9494 154.956 55.9525C154.767 55.9557 154.576 55.9604 154.382 55.9667C154.181 56.4561 153.999 56.9235 153.836 57.369C153.672 57.8148 153.55 58.1878 153.469 58.489C153.406 58.4765 153.346 58.4655 153.29 58.4561C153.233 58.4467 153.177 58.442 153.12 58.442C153.064 58.442 153.007 58.4467 152.951 58.4561C152.894 58.4655 152.835 58.4765 152.772 58.489C153.28 57.3784 153.778 56.2772 154.264 55.1855C154.75 54.0937 155.235 52.9894 155.718 51.8725H155.897Z" fill="#181210"></path>
      <path d="M166.664 53.1431C166.57 53.0302 166.452 52.9172 166.311 52.8043C166.17 52.6913 166.013 52.5925 165.84 52.5078C165.668 52.4231 165.476 52.3541 165.266 52.3007C165.056 52.2474 164.831 52.2207 164.593 52.2207C164.204 52.2207 163.842 52.2806 163.506 52.3996C163.171 52.5188 162.879 52.7023 162.631 52.9502C162.383 53.198 162.189 53.5117 162.047 53.8913C161.906 54.2709 161.836 54.7211 161.836 55.2419C161.836 55.7062 161.898 56.1219 162.024 56.489C162.149 56.856 162.333 57.1666 162.574 57.4207C162.816 57.6749 163.109 57.8709 163.455 58.009C163.799 58.147 164.195 58.216 164.64 58.216C164.91 58.216 165.188 58.1912 165.473 58.1407C165.759 58.0905 165.983 58.0152 166.146 57.9149C166.152 57.7266 166.157 57.5384 166.16 57.3502C166.164 57.1619 166.165 56.9705 166.165 56.776C166.165 56.5564 166.16 56.3368 166.151 56.1172C166.142 55.8976 166.131 55.6874 166.118 55.4866C166.256 55.518 166.407 55.5337 166.57 55.5337C166.639 55.5337 166.708 55.5305 166.777 55.5243C166.846 55.518 166.911 55.5054 166.974 55.4866C166.962 55.6312 166.953 55.8584 166.946 56.169C166.94 56.4796 166.937 56.889 166.937 57.3972C166.937 57.5227 166.938 57.6498 166.942 57.7784C166.944 57.907 166.946 58.0341 166.946 58.1596C166.815 58.2098 166.65 58.26 166.452 58.3102C166.255 58.3606 166.044 58.409 165.821 58.456C165.599 58.5031 165.376 58.5407 165.153 58.569C164.93 58.5972 164.728 58.6113 164.546 58.6113C163.988 58.6113 163.484 58.5392 163.036 58.3949C162.587 58.2505 162.206 58.0372 161.892 57.7549C161.578 57.4725 161.337 57.1211 161.167 56.7007C160.998 56.2803 160.913 55.7941 160.913 55.2419C160.913 54.7086 161.001 54.2333 161.177 53.816C161.353 53.3988 161.6 53.0458 161.92 52.7572C162.24 52.4686 162.626 52.249 163.078 52.0984C163.53 51.9478 164.035 51.8725 164.593 51.8725C164.913 51.8725 165.197 51.89 165.445 51.9243C165.693 51.9588 165.912 52.003 166.104 52.056C166.295 52.1094 166.463 52.169 166.607 52.2349C166.752 52.3007 166.88 52.3619 166.993 52.4184C166.943 52.5062 166.898 52.6194 166.857 52.7572C166.816 52.8952 166.789 53.0239 166.777 53.1431H166.664Z" fill="#181210"></path>
      <path d="M170.476 54.4231C170.476 54.0153 170.468 53.609 170.452 53.2043C170.436 52.7996 170.419 52.3965 170.4 51.9949C170.683 52.0074 170.963 52.0184 171.243 52.0278C171.522 52.0372 171.802 52.042 172.085 52.042C172.367 52.042 172.647 52.0372 172.922 52.0278C173.199 52.0184 173.478 52.0074 173.76 51.9949C173.741 52.089 173.732 52.1831 173.732 52.2772C173.732 52.3714 173.741 52.4655 173.76 52.5596C173.559 52.5471 173.376 52.5329 173.21 52.5172C173.043 52.5016 172.868 52.4877 172.682 52.4749C172.497 52.4623 172.295 52.4529 172.076 52.4467C171.856 52.4406 171.592 52.4372 171.285 52.4372C171.279 52.638 171.271 52.8294 171.262 53.0114C171.252 53.1933 171.247 53.4004 171.247 53.6325C171.247 53.8772 171.249 54.1157 171.252 54.3478C171.255 54.58 171.257 54.7557 171.257 54.8749C171.809 54.8749 172.259 54.8655 172.607 54.8467C172.955 54.8278 173.268 54.8059 173.544 54.7808C173.525 54.8749 173.516 54.9724 173.516 55.0725C173.516 55.1667 173.525 55.2608 173.544 55.3549C173.381 55.3361 173.191 55.322 172.975 55.3125C172.758 55.3031 172.541 55.2953 172.325 55.289C172.109 55.283 171.905 55.2783 171.713 55.2749C171.522 55.2718 171.37 55.2702 171.257 55.2702C171.257 55.3267 171.255 55.3878 171.252 55.4537C171.249 55.5196 171.247 55.6027 171.247 55.7031V56.0702V56.6349C171.247 56.9925 171.249 57.2877 171.252 57.5196C171.255 57.7518 171.26 57.9274 171.266 58.0467C171.473 58.0467 171.695 58.0451 171.93 58.042C172.165 58.0388 172.397 58.0344 172.626 58.0278C172.855 58.0218 173.072 58.0106 173.276 57.9949C173.479 57.9795 173.657 57.9557 173.807 57.9243C173.795 57.9682 173.787 58.0171 173.784 58.0702C173.781 58.1235 173.779 58.1722 173.779 58.2161C173.779 58.3165 173.789 58.4074 173.807 58.489C173.525 58.4765 173.244 58.4655 172.965 58.4561C172.686 58.4467 172.402 58.442 172.113 58.442C171.824 58.442 171.539 58.4467 171.257 58.4561C170.974 58.4655 170.689 58.4765 170.4 58.489C170.419 58.0749 170.436 57.6655 170.452 57.2608C170.468 56.8561 170.476 56.4498 170.476 56.042V54.4231Z" fill="#181210"></path>
      <path d="M177.666 51.8725C178.099 52.7635 178.537 53.6294 178.979 54.4702C179.421 55.311 179.884 56.1737 180.367 57.0584C180.43 56.9392 180.521 56.7667 180.64 56.5408C180.76 56.3149 180.897 56.0592 181.054 55.7737C181.211 55.4882 181.381 55.1776 181.563 54.842C181.745 54.5063 181.928 54.1674 182.113 53.8255C182.298 53.4835 182.48 53.1447 182.659 52.809C182.838 52.4733 183.006 52.1612 183.163 51.8725H183.285C183.354 52.4749 183.42 53.0569 183.483 53.6184C183.545 54.18 183.607 54.7322 183.666 55.2749C183.726 55.8176 183.787 56.3541 183.85 56.8843C183.912 57.4145 183.981 57.9494 184.057 58.489C183.981 58.4765 183.908 58.4655 183.836 58.4561C183.763 58.4467 183.69 58.442 183.614 58.442C183.539 58.442 183.465 58.4467 183.393 58.4561C183.321 58.4655 183.247 58.4765 183.172 58.489C183.103 57.642 183.034 56.8231 182.965 56.0325C182.896 55.242 182.811 54.442 182.711 53.6325H182.692C182.259 54.4231 181.834 55.209 181.417 55.9902C181 56.7714 180.603 57.5886 180.226 58.442H180.141C179.771 57.6576 179.379 56.8655 178.965 56.0655C178.551 55.2655 178.137 54.4545 177.723 53.6325H177.704C177.66 54.0216 177.611 54.4435 177.558 54.8984C177.505 55.3533 177.456 55.802 177.412 56.2443C177.368 56.6867 177.331 57.1055 177.299 57.5008C177.268 57.8961 177.252 58.2255 177.252 58.489C177.196 58.4765 177.14 58.4655 177.087 58.4561C177.034 58.4467 176.979 58.442 176.923 58.442C176.866 58.442 176.811 58.4467 176.758 58.4561C176.705 58.4655 176.65 58.4765 176.593 58.489C176.675 57.9682 176.759 57.4239 176.847 56.8561C176.935 56.2882 177.018 55.7188 177.097 55.1478C177.175 54.5769 177.251 54.0137 177.323 53.4584C177.395 52.9031 177.456 52.3745 177.506 51.8725H177.666Z" fill="#181210"></path>
      <path d="M187.313 54.4231C187.313 54.0153 187.305 53.609 187.29 53.2043C187.274 52.7996 187.256 52.3965 187.238 51.9949C187.52 52.0074 187.801 52.0184 188.08 52.0278C188.359 52.0372 188.64 52.042 188.922 52.042C189.205 52.042 189.484 52.0372 189.76 52.0278C190.036 52.0184 190.315 52.0074 190.598 51.9949C190.579 52.089 190.57 52.1831 190.57 52.2772C190.57 52.3714 190.579 52.4655 190.598 52.5596C190.397 52.5471 190.214 52.5329 190.047 52.5172C189.881 52.5016 189.705 52.4877 189.52 52.4749C189.335 52.4623 189.133 52.4529 188.913 52.4467C188.693 52.4406 188.43 52.4372 188.123 52.4372C188.116 52.638 188.109 52.8294 188.099 53.0114C188.09 53.1933 188.085 53.4004 188.085 53.6325C188.085 53.8772 188.086 54.1157 188.09 54.3478C188.093 54.58 188.094 54.7557 188.094 54.8749C188.647 54.8749 189.096 54.8655 189.445 54.8467C189.793 54.8278 190.105 54.8059 190.381 54.7808C190.363 54.8749 190.353 54.9724 190.353 55.0725C190.353 55.1667 190.363 55.2608 190.381 55.3549C190.218 55.3361 190.029 55.322 189.812 55.3125C189.595 55.3031 189.379 55.2953 189.162 55.289C188.946 55.283 188.742 55.2783 188.551 55.2749C188.359 55.2718 188.207 55.2702 188.094 55.2702C188.094 55.3267 188.093 55.3878 188.09 55.4537C188.086 55.5196 188.085 55.6027 188.085 55.7031V56.0702V56.6349C188.085 56.9925 188.086 57.2877 188.09 57.5196C188.093 57.7518 188.097 57.9274 188.104 58.0467C188.311 58.0467 188.532 58.0451 188.767 58.042C189.003 58.0388 189.235 58.0344 189.464 58.0278C189.693 58.0218 189.909 58.0106 190.113 57.9949C190.317 57.9795 190.494 57.9557 190.645 57.9243C190.632 57.9682 190.624 58.0171 190.621 58.0702C190.618 58.1235 190.617 58.1722 190.617 58.2161C190.617 58.3165 190.626 58.4074 190.645 58.489C190.363 58.4765 190.082 58.4655 189.802 58.4561C189.523 58.4467 189.239 58.442 188.951 58.442C188.662 58.442 188.376 58.4467 188.094 58.4561C187.812 58.4655 187.526 58.4765 187.238 58.489C187.256 58.0749 187.274 57.6655 187.29 57.2608C187.305 56.8561 187.313 56.4498 187.313 56.042V54.4231Z" fill="#181210"></path>
      <path d="M199.2 58.6113C198.479 57.7643 197.708 56.9 196.89 56.0184C196.071 55.1368 195.257 54.2662 194.447 53.4066C194.441 53.5823 194.434 53.8192 194.428 54.1172C194.422 54.4152 194.419 54.8152 194.419 55.3172C194.419 55.449 194.421 55.6121 194.424 55.8066C194.427 56.0011 194.43 56.2051 194.433 56.4184C194.436 56.6317 194.439 56.8482 194.443 57.0678C194.445 57.2877 194.45 57.4913 194.457 57.6796C194.463 57.8678 194.471 58.0341 194.48 58.1784C194.49 58.3227 194.497 58.4262 194.504 58.489C194.391 58.4576 194.281 58.4419 194.174 58.4419C194.118 58.4419 194.061 58.4466 194.005 58.456C193.948 58.4654 193.889 58.4764 193.826 58.489C193.839 58.4137 193.853 58.29 193.868 58.1172C193.884 57.9447 193.898 57.7407 193.911 57.5054C193.923 57.2702 193.937 57.0147 193.953 56.7384C193.969 56.4623 193.981 56.1865 193.991 55.9102C194 55.6341 194.008 55.3643 194.014 55.1007C194.021 54.8372 194.024 54.6019 194.024 54.3949C194.024 53.7988 194.022 53.283 194.019 52.8466C194.016 52.4105 194.008 52.0858 193.995 51.8725H194.146C194.529 52.2866 194.938 52.7305 195.374 53.2043C195.81 53.678 196.243 54.1454 196.673 54.6066C197.103 55.0678 197.511 55.5039 197.897 55.9149C198.283 56.3258 198.62 56.6756 198.908 56.9643V55.6843C198.908 55.2453 198.905 54.8137 198.899 54.3902C198.893 53.9666 198.885 53.5525 198.875 53.1478C198.866 52.7431 198.852 52.3588 198.833 51.9949C198.946 52.0265 199.053 52.0419 199.153 52.0419C199.241 52.0419 199.341 52.0265 199.454 51.9949C199.442 52.1329 199.426 52.34 199.407 52.616C199.388 52.8924 199.371 53.187 199.355 53.5007C199.34 53.8145 199.327 54.1219 199.318 54.4231C199.308 54.7243 199.304 54.9658 199.304 55.1478C199.304 55.3865 199.305 55.6811 199.308 56.0325C199.312 56.3839 199.314 56.7337 199.318 57.0819C199.321 57.4302 199.324 57.7454 199.327 58.0278C199.33 58.3102 199.332 58.5047 199.332 58.6113H199.2Z" fill="#181210"></path>
      <path d="M204.414 54.4325C204.414 53.7863 204.405 53.1369 204.386 52.4843C204.223 52.4843 204.052 52.4859 203.873 52.489C203.694 52.4922 203.516 52.4984 203.337 52.5078C203.158 52.5172 202.985 52.5282 202.819 52.5408C202.653 52.5536 202.504 52.569 202.372 52.5878C202.403 52.4812 202.419 52.3808 202.419 52.2867C202.419 52.2051 202.403 52.1078 202.372 51.9949C202.78 52.0074 203.185 52.0184 203.586 52.0278C203.987 52.0372 204.392 52.042 204.8 52.042C205.208 52.042 205.613 52.0372 206.014 52.0278C206.416 52.0184 206.82 52.0074 207.229 51.9949C207.197 52.1078 207.181 52.2082 207.181 52.2961C207.181 52.3842 207.197 52.4812 207.229 52.5878C207.097 52.569 206.947 52.5536 206.781 52.5408C206.615 52.5282 206.443 52.5172 206.264 52.5078C206.085 52.4984 205.906 52.4922 205.727 52.489C205.549 52.4859 205.378 52.4843 205.214 52.4843C205.195 53.1369 205.186 53.7863 205.186 54.4325V56.0514C205.186 56.4592 205.194 56.8655 205.21 57.2702C205.225 57.6749 205.243 58.0812 205.261 58.489C205.18 58.4765 205.101 58.4655 205.026 58.4561C204.951 58.4467 204.876 58.442 204.8 58.442C204.725 58.442 204.649 58.4467 204.574 58.4561C204.499 58.4655 204.42 58.4765 204.339 58.489C204.358 58.0812 204.375 57.6749 204.391 57.2702C204.407 56.8655 204.414 56.4592 204.414 56.0514V54.4325Z" fill="#181210"></path>
    </g>
    <path d="M132.186 0.0541503V10.9919C129.311 4.56788 122.762 0.0102349 115.385 0.0899735H68.6061V37.5728L48.5172 0.126307H26.0132L-0.0310059 48.6748H21.2812L25.1102 40.3666H49.4208L53.135 48.4262C53.9664 47.8508 54.8192 47.2845 55.6974 46.7292C62.8859 42.182 71.6223 38.3132 81.3266 35.023C85.4762 33.6162 89.8011 32.314 94.2584 31.1106C100.03 29.5522 106.02 28.1579 112.132 26.9104C116.814 25.954 121.568 25.0842 126.348 24.2926C132.287 23.3088 138.267 22.4463 144.202 21.69C146.197 21.4356 148.188 21.1932 150.17 20.9624C155.041 20.3953 159.86 19.8973 164.582 19.4602C164.783 19.4416 164.986 19.4223 165.188 19.404C167.008 19.2369 168.814 19.0795 170.601 18.9302L155.882 0.0541503H132.186ZM37.2832 14.1778L43.9298 28.5185H30.6006L37.2832 14.1778ZM87.5342 14.2863H110.616C112.928 14.2863 114.771 16.1284 114.771 18.4403C114.771 19.5603 114.373 20.5355 113.542 21.3663C112.748 22.1608 111.772 22.5582 110.616 22.5582H87.5342V14.2863Z" fill="url(#paint0_linear_85_43)"></path>
    <path d="M193.775 0.0541421L179.568 18.2395C179.758 18.2259 179.95 18.2121 180.14 18.1987C181.609 18.096 183.064 17.9982 184.498 17.9062C191.251 17.4738 197.593 17.1592 203.338 16.9315C208.58 16.7237 213.324 16.5877 217.435 16.4999V0.0541421H193.775Z" fill="url(#paint1_linear_85_43)"></path>
    <path d="M203.338 17.5376C196.79 17.8876 190.511 18.291 184.498 18.742C182.844 18.8662 181.214 18.9945 179.6 19.1255C179.34 19.1464 179.084 19.1681 178.826 19.1893L174.811 24.3284L171.314 19.844C164.06 20.513 157.228 21.2513 150.8 22.045C148.553 22.3226 146.352 22.6068 144.202 22.8973C137.835 23.7572 131.894 24.6704 126.347 25.6202C121.745 26.4084 117.414 27.222 113.346 28.0515C106.678 29.411 100.711 30.8131 95.3783 32.2165C90.0889 33.6087 85.4235 35.0021 81.3265 36.3561C68.4029 40.6277 61.1103 44.5085 57.5582 46.7292C55.5974 47.9545 54.7749 48.6748 54.7749 48.6748H74.5618L74.5422 48.6387H87.5341V36.7906H104.439L113.578 48.6387H133.735L133.707 48.6024H151.114V22.7028L170.079 48.6024H179.543L198.507 22.7028V48.6024H217.435V16.8868C212.602 17.0761 207.904 17.2936 203.338 17.5376ZM123.151 35.0207C126.33 33.5394 128.894 31.2999 130.809 28.3741C131.341 27.565 131.799 26.7279 132.186 25.8659V46.6463L123.151 35.0207Z" fill="url(#paint2_linear_85_43)"></path>
    <mask id="mask1_85_43" style="mask-type:luminance" maskUnits="userSpaceOnUse" x="-4" y="-11" width="226" height="82">
      <path d="M-3.92151 -10.7843H221.961V70.7566H-3.92151V-10.7843Z" fill="white"></path>
    </mask>
    <g mask="url(#mask1_85_43)">
      <mask id="mask2_85_43" style="mask-type:luminance" maskUnits="userSpaceOnUse" x="54" y="16" width="164" height="33">
        <path d="M54.7749 16.8868H217.435V48.6748H54.7749V16.8868Z" fill="white"></path>
      </mask>
      <g mask="url(#mask2_85_43)">
        <g opacity="0.259995">
          <path d="M132.186 46.6463L123.151 35.0204C126.33 33.5394 128.894 31.2999 130.809 28.3742C131.342 27.565 131.799 26.7279 132.186 25.8657V46.6463ZM184.498 18.742C182.845 18.8662 181.214 18.9943 179.6 19.1255C179.341 19.1464 179.084 19.1681 178.825 19.1893L174.811 24.3284L171.314 19.844C164.06 20.513 157.228 21.2513 150.8 22.045C148.553 22.3226 146.353 22.6068 144.202 22.8973C137.835 23.7569 131.894 24.6704 126.348 25.6202C121.744 26.4084 117.414 27.222 113.345 28.0515C106.679 29.411 100.711 30.8131 95.3784 32.2165C90.089 33.6087 85.4236 35.0019 81.3264 36.3561C68.4027 40.6277 61.1104 44.5085 57.5583 46.7292C55.5975 47.9545 54.775 48.6748 54.775 48.6748H74.5617L74.5423 48.6387H87.5342V36.7906H104.439L113.578 48.6387H133.735L133.707 48.6026H151.114V22.7028L170.079 48.6026H179.543L198.507 22.7028V48.6026H217.435V16.8868C212.602 17.0761 207.904 17.2936 203.339 17.5376C196.79 17.8876 190.511 18.2908 184.498 18.742Z" fill="#847621"></path>
        </g>
      </g>
    </g>
  </g>
  <defs>
    <linearGradient id="paint0_linear_85_43" x1="1.11716" y1="24.3644" x2="206.94" y2="24.3644" gradientUnits="userSpaceOnUse">
      <stop stop-color="#CAB656"></stop>
      <stop offset="0.630354" stop-color="#CAB656"></stop>
      <stop offset="1" stop-color="#B6A223"></stop>
    </linearGradient>
    <linearGradient id="paint1_linear_85_43" x1="1.11707" y1="9.1467" x2="206.94" y2="9.1467" gradientUnits="userSpaceOnUse">
      <stop stop-color="#CAB656"></stop>
      <stop offset="0.630354" stop-color="#CAB656"></stop>
      <stop offset="1" stop-color="#B6A223"></stop>
    </linearGradient>
    <linearGradient id="paint2_linear_85_43" x1="1.11705" y1="32.7808" x2="206.94" y2="32.7808" gradientUnits="userSpaceOnUse">
      <stop stop-color="#CAB656"></stop>
      <stop offset="0.630354" stop-color="#CAB656"></stop>
      <stop offset="1" stop-color="#B6A223"></stop>
    </linearGradient>
    <clipPath id="clip0_85_43">
      <rect width="218.039" height="60" fill="white"></rect>
    </clipPath>
  </defs>
</svg>
