<svg id="Layer_1" enable-background="new 0 0 24 24" viewBox="0 0 24 24" xmlns="http://www.w3.org/2000/svg"><g><path d="m16 22c-.3 0-.5-.1-.7-.3-.4-.4-.4-1 0-1.4l2.3-2.3h-13.6c-.6 0-1-.4-1-1s.4-1 1-1h13.6l-2.3-2.3c-.4-.4-.4-1 0-1.4s1-.4 1.4 0l4 4c.1.1.2.2.2.3s.1.2.1.4c0 .1 0 .3-.1.4 0 .1-.1.2-.2.3l-4 4c-.2.2-.4.3-.7.3zm-8-10c-.3 0-.5-.1-.7-.3l-4-4c-.1-.1-.2-.2-.2-.3-.1-.1-.1-.3-.1-.4 0-.1 0-.3.1-.4 0-.1.1-.2.2-.3l4-4c.4-.4 1-.4 1.4 0s.4 1 0 1.4l-2.3 2.3h13.6c.6 0 1 .4 1 1s-.4 1-1 1h-13.6l2.3 2.3c.4.4.4 1 0 1.4-.2.2-.4.3-.7.3z"/></g></svg>